<svg width="107" height="48" viewBox="0 0 107 48" fill="none" xmlns="http://www.w3.org/2000/svg">
<path d="M6.98122 6.1833C4.38241 13.3729 4.25246 23.3583 2.95306 32.5451C2.4333 21.7607 1.78359 11.7752 1.26383 1.39026C1.00395 1.39026 0.874013 1.39026 0.744068 1.39026C0.614129 1.78968 0.484189 1.78968 0.354248 2.18909C1.13389 15.37 1.78359 28.1516 2.56324 41.7318C4.77223 32.1456 4.64228 20.5624 6.72134 10.9764C7.63089 19.7636 7.63089 28.9503 7.76084 37.3381C8.02076 37.3381 8.15065 37.3381 8.28061 37.3381C8.41057 37.3381 8.41057 37.3381 8.67042 36.9386C8.54053 28.1516 8.54053 18.5653 7.63089 9.77809C7.501 8.57984 7.24108 7.78098 6.98122 6.1833Z" fill="white"/>
<path d="M34.9183 18.9648C34.1387 18.9648 33.619 20.1631 33.2292 22.5596C33.0992 23.3585 32.9692 24.5568 32.8393 25.3556C32.3195 26.1543 31.4099 23.7578 31.5399 27.7521C31.9297 28.1516 32.3195 28.5508 32.5794 28.5508C32.5794 33.3441 32.5794 37.7376 32.5794 41.7319C34.5285 44.5279 35.8279 41.7319 37.2573 38.1371C37.1274 37.3381 36.9974 36.5393 36.7376 35.7406C36.3477 36.5393 36.2178 36.9388 35.8279 37.7376C35.3081 38.5364 34.6585 39.7346 34.1387 40.1341C33.7489 40.5336 33.359 40.1341 33.359 38.5364C33.359 35.3411 33.489 32.5451 33.489 29.3498C35.698 29.3498 37.7771 31.3468 39.8561 29.7493C39.4663 22.5596 37.5172 18.5654 34.9183 18.9648ZM33.8788 26.1543C34.0088 22.1603 34.2687 21.3614 35.3081 21.7608C36.6076 22.1603 37.7771 23.3586 38.6867 27.3526C37.1274 26.9533 35.4381 26.5538 33.8788 26.1543Z" fill="white"/>
<path d="M71.9515 29.3496C71.0417 29.3496 70.1324 28.9501 69.2228 28.9501C68.703 28.9501 68.4432 28.1513 68.3132 26.9531C67.7935 22.5593 67.2737 18.1657 66.7539 13.3727C66.2342 18.1657 65.5844 22.5593 65.0647 26.9531C64.6749 26.9531 64.415 26.5536 64.0252 26.5536C64.0252 27.3524 63.8953 28.1513 63.8953 28.9501C64.2851 28.9501 64.5449 29.3496 64.8048 29.3496C64.6749 32.9444 64.5449 36.5391 64.2851 40.5334C64.6749 40.5334 64.9348 40.5334 65.1946 40.5334C65.3246 36.9386 65.5844 33.7431 65.7144 30.1484C67.1437 30.1484 68.0533 30.9471 68.5731 35.3409C68.963 38.5361 69.4826 41.3321 70.0024 44.5274C70.2623 44.1281 70.5222 43.7286 70.7821 42.9299C70.1324 38.9356 69.6126 35.3409 68.963 31.3466C70.0024 31.3466 70.912 31.3466 71.9515 31.3466C72.0812 30.9471 71.9515 30.1484 71.9515 29.3496ZM66.1042 27.3524C66.2342 25.3553 66.494 23.7576 66.624 21.3611C66.8839 23.7576 67.1437 25.7548 67.4037 28.1513C67.0138 27.7518 66.624 27.7518 66.1042 27.3524Z" fill="white"/>
<path d="M21.0147 5.38458C20.8848 5.78401 20.8848 5.78401 20.7548 6.18343C21.9243 10.577 22.574 16.1689 22.9638 21.3614C22.3141 21.3614 21.6644 20.5626 21.1446 20.5626C20.1052 20.962 19.3255 22.1603 18.9357 25.3556C18.5459 28.551 18.8057 31.7463 19.5854 34.5423C20.7548 38.5366 22.3141 39.7348 24.0034 38.9358C24.2632 26.5538 24.1333 14.9707 21.4045 4.58575C21.2746 4.98516 21.1446 5.38458 21.0147 5.38458ZM23.0938 29.7493C22.9638 31.7463 23.0938 33.7435 23.0938 36.1401C21.4045 36.5393 19.9752 33.3441 19.7153 28.9503C19.5854 26.9533 19.8453 24.9563 20.495 24.1573C21.1446 23.3585 21.6644 22.959 22.3141 24.1573C22.9638 25.755 23.2237 27.3528 23.0938 29.7493Z" fill="white"/>
<path d="M52.7203 6.98233C52.7203 6.18351 52.3305 5.78408 52.0706 4.98523C52.0706 5.38465 51.9406 5.38466 51.8107 5.78408C51.9406 8.58002 51.9406 11.7754 52.0706 14.5713C52.3305 19.7638 52.5903 25.3558 52.7203 30.5483C52.8502 32.9448 52.4604 35.3413 51.9406 36.9388C49.6017 43.3296 46.3532 40.9331 45.0538 32.5453L44.9238 32.1458C44.664 32.5453 44.534 32.5453 44.2742 32.9448C44.2742 33.344 44.2742 33.7435 44.2742 33.7435C45.1837 41.732 47.3927 44.5278 50.3813 42.5308C53.1101 40.5336 54.1496 36.14 53.7598 27.7523C53.3699 20.5626 53.1101 13.7725 52.7203 6.98233Z" fill="white"/>
<path d="M57.138 30.1488C56.2285 28.551 56.2285 25.755 56.6183 23.758C56.7482 24.1575 56.7482 25.3557 56.8782 25.3557C58.1776 26.1545 59.477 26.554 60.9064 27.3528C60.9064 23.758 60.9064 20.962 60.9064 17.7667C59.6069 18.1661 58.3075 18.1661 57.138 18.9649C55.1889 20.5626 54.6692 26.9533 56.0985 31.347C56.4884 32.5453 57.138 33.7435 57.7878 34.5423C59.0871 35.3413 60.3866 36.14 61.686 36.5395C61.686 36.5395 61.8159 36.5395 61.9459 36.14C61.9459 35.3411 61.9459 34.5423 61.9459 33.7435C61.0363 33.344 60.2566 33.344 59.477 32.5453C58.6973 32.5453 57.9177 31.7463 57.138 30.1488ZM59.9968 20.5626C59.9968 22.1603 59.9968 22.959 59.9968 24.5568C58.9573 24.1575 58.0476 23.3585 57.138 22.959C57.138 22.5597 57.138 22.1603 57.138 21.7609C58.0476 21.3614 58.9573 20.962 59.9968 20.5626Z" fill="white"/>
<path d="M79.228 22.5596C77.149 23.3585 77.0193 29.3498 76.1095 33.7433C75.8494 28.1516 75.7197 22.5596 73.7703 19.7637C73.6407 20.9619 73.511 21.3614 73.511 22.1603C74.8099 24.1573 74.9403 28.1516 75.0699 31.7463C75.1996 35.7406 75.4597 40.1341 75.5893 44.1284C75.7197 44.1284 75.7197 44.1284 75.8494 44.1284C76.6289 38.1371 77.2787 31.7463 78.4486 26.1543C78.5783 26.1543 78.7079 26.1543 78.7079 26.1543C79.0984 31.3468 79.4881 36.5393 80.0075 42.1311C80.2676 41.7319 80.5276 41.7319 80.9174 41.3324C80.5276 36.1399 80.0075 30.9473 79.6178 25.7551C79.6178 24.9561 79.3577 23.7578 79.228 22.5596Z" fill="white"/>
<path d="M81.8274 27.7518C83.3863 28.9501 84.946 29.7488 86.6346 30.9471C86.2449 33.3436 85.8551 35.3408 85.3357 37.3378C84.5555 39.7344 83.6464 41.7316 82.7365 44.1281C82.7365 44.1281 82.7365 44.5274 82.6069 44.9269C82.8669 45.3264 82.9966 45.7256 83.1263 46.1251C83.9065 44.1281 84.4259 41.7316 85.2053 40.5333C87.025 37.7373 87.1547 32.1453 88.0646 27.7518C86.3752 27.3523 84.946 26.9528 83.516 26.5536C83.516 26.1541 83.516 25.7546 83.516 25.7546C84.8156 22.1598 86.5049 22.5593 88.1942 22.9588C88.1942 22.1598 88.1942 21.3611 88.1942 20.5622C85.5951 18.1657 83.1263 20.9616 81.8274 27.7518Z" fill="white"/>
<path d="M106.646 29.7493C106.646 28.9505 106.646 27.3528 106.516 25.7551C106.126 23.3585 105.866 20.5627 105.216 18.965C104.177 16.169 102.748 17.3673 101.708 21.7609C100.668 25.7551 100.798 30.9476 102.098 33.7436C102.877 35.3413 103.787 36.1401 104.567 36.9388C105.866 38.1371 106.386 36.5396 106.516 32.1458C106.646 31.7465 106.646 30.9476 106.646 29.7493ZM105.736 32.1458C105.736 33.7436 105.476 34.9418 104.827 34.1431C104.306 33.7436 103.657 33.3441 103.137 32.5453C102.358 31.3471 101.968 29.35 102.098 26.554C102.227 23.758 103.008 21.3615 103.787 20.9621C104.567 20.5627 105.087 21.7609 105.346 23.758C105.606 25.7551 105.606 27.7523 105.866 29.7493C105.866 29.7493 105.866 29.7493 105.736 29.7493C105.736 30.5483 105.736 31.3471 105.736 32.1458Z" fill="white"/>
<path d="M15.6872 28.5506C15.4274 30.9473 15.1675 33.3438 14.7777 35.3409C13.9981 38.9356 12.4388 38.5361 11.789 34.5421C11.6591 32.9444 11.5292 31.3466 11.3992 30.1484C11.2693 27.3524 11.1393 24.5566 11.0094 21.7605C10.8795 21.7605 10.8795 21.3611 10.7495 21.3611C10.6195 22.1601 10.2297 22.9588 10.2297 23.3583C10.3597 27.3524 10.6195 31.3466 11.0094 34.9414C11.2693 38.1369 11.919 40.1339 13.0885 40.5334C14.2579 40.9329 15.2974 39.7344 15.6872 36.1396C16.337 32.1456 16.7268 28.1513 17.1166 23.7576C16.7268 23.3583 16.4669 22.9588 16.0771 22.9588C16.0771 25.3553 15.9472 26.9531 15.6872 28.5506Z" fill="white"/>
<path d="M97.1601 35.7406C96.5103 34.9418 95.6005 34.1431 95.0811 32.9448C93.9112 30.1488 94.1712 26.554 95.4708 24.5568C95.8605 23.758 96.38 23.3586 96.9001 22.9593C96.7697 22.1603 96.64 21.3615 96.5103 20.5627C95.9902 20.9621 95.6005 21.3615 95.2108 22.1603C93.1317 24.9563 92.742 32.1458 94.6906 36.1401C95.6005 38.1371 96.7697 38.5366 97.9396 39.3354C98.0693 39.3354 98.0693 39.3354 98.1997 38.9361C98.1997 38.1371 98.1997 37.3383 98.1997 36.5396C97.8092 36.1401 97.4195 36.1401 97.1601 35.7406Z" fill="white"/>
<path d="M27.122 23.3585C26.6022 22.959 26.3423 22.959 26.2124 24.9563C25.9525 32.9446 28.0316 40.5336 30.6304 41.7318C30.7603 40.9331 30.7603 40.1343 30.8902 39.7348C27.6417 34.5423 27.3818 33.7436 27.122 23.3585Z" fill="white"/>
<path d="M26.6022 8.57971C26.3423 8.57971 26.0824 8.57971 25.8225 8.57971C25.8225 10.5768 25.8225 12.5739 25.8225 14.571C26.0824 14.571 26.3423 14.571 26.6022 14.571C26.6022 12.5739 26.6022 10.5768 26.6022 8.57971Z" fill="white"/>
</svg>
